<svg xmlns="http://www.w3.org/2000/svg" viewBox="0 0 32 32">
  <path d="M29.56 2.44C29.45 2.15 29.17 1.95 28.85 1.95L19.46 1.95C19.14 1.95 18.84 2.15 18.73 2.45L12.79 19.34L7.02 5.09C6.93 4.88 6.72 4.74 6.49 4.74L1.06 4.74C0.71 4.74 0.44 5.06 0.52 5.4L9.82 29.34C9.92 29.6 10.17 29.77 10.45 29.77C10.73 29.77 10.98 29.6 11.08 29.34L17.29 11.66L21.43 23.41C21.53 23.7 21.8 23.86 22.09 23.86C22.38 23.86 22.65 23.7 22.75 23.41L30.08 2.87C30.17 2.58 29.98 2.25 29.67 2.36L29.56 2.44Z" fill="#bd34fe"/>
  <path d="M29.56 2.44L22.75 23.41C22.65 23.7 22.38 23.86 22.09 23.86C21.8 23.86 21.53 23.7 21.43 23.41L17.29 11.66L11.08 29.34C10.98 29.6 10.73 29.77 10.45 29.77L10.37 29.77C10.09 29.75 9.85 29.57 9.77 29.3L0.52 5.51C0.45 5.31 0.53 5.09 0.7 4.96C0.87 4.83 1.1 4.83 1.25 5.01L10.45 28.3L16.27 11.75L6.49 4.74C8.2 4.74 19.46 1.95 28.85 1.95C29.17 1.95 29.45 2.15 29.56 2.44Z" fill="#ffc619"/>
</svg>
